<?xml version="1.0" encoding="utf-8"?>
<!-- Generator: Adobe Illustrator 21.0.0, SVG Export Plug-In . SVG Version: 6.00 Build 0)  -->
<svg version="1.1" id="图层_1" xmlns="http://www.w3.org/2000/svg" xmlns:xlink="http://www.w3.org/1999/xlink" x="0px" y="0px"
	 viewBox="0 0 200 200" style="enable-background:new 0 0 200 200;" xml:space="preserve">
<style type="text/css">
	.st0{fill:#1AFA29;}
	.st1{fill:#ED7318;}
	.st2{fill:#B24902;}
	.st3{fill:#FF3E24;stroke:#FAFCFA;stroke-width:10;stroke-miterlimit:10;}
	.st4{fill:#DE4B29;}
	.st5{fill:#B53125;}
	.st6{fill:#FADB00;}
	.st7{fill:#F7C90E;}
	.st8{fill:#F7B716;}
	.st9{fill:#FFFFFF;}
	.st10{fill:#F9A826;}
	.st11{fill:#FFFEFD;}
</style>
<g>
	<g>
		<path class="st1" d="M5.1,135.7l28.3-9.5l-3.4,4.6c-1.5,1.6-1.4,4.1,0.2,5.7l13.5,13.8c0.6,0.5,1.3,0.9,2,1
			c-0.4,0.3-0.9,0.6-1.4,0.8L14,162.3c-2.1,0.7-4.4-0.4-5.1-2.5l-0.1-0.3l5.7-11.3c0.2-0.5,0-1.1-0.4-1.3l-11.3-5.7l-0.1-0.3
			C1.9,138.7,3,136.4,5.1,135.7z"/>
		<polygon class="st2" points="34.8,148.9 45.7,151.3 41.3,126.2 30.4,123.8 		"/>
	</g>
	<circle class="st3" cx="99.1" cy="83.5" r="60"/>
	<g>
		<path class="st1" d="M193.3,132.9l-29-7l4.8,4.2c1.6,1.5,1.8,4,0.3,5.6l-13.3,15c-0.5,0.6-1.2,1-1.9,1.2c0.4,0.3,0.9,0.6,1.4,0.7
			l31.1,7.5c2.1,0.5,4.3-0.8,4.8-3l0.1-0.3l-6.6-10.8c-0.3-0.5-0.1-1.1,0.3-1.4l10.8-6.6l0.1-0.3
			C196.8,135.6,195.4,133.4,193.3,132.9z"/>
		<polygon class="st2" points="164.5,148.9 154.2,152 156.3,128.1 166.6,125 		"/>
	</g>
	<g>
		<g>
			<g>
				<path class="st4" d="M129.7,101.3v8.3H70.1v-8.3c0-11,6-20.6,14.8-25.8c4.4-2.5,9.5-4,14.9-4h0.1c3.4,0,6.6,0.6,9.6,1.6
					c3,1,5.8,2.5,8.3,4.4C125.1,82.9,129.7,91.6,129.7,101.3z"/>
			</g>
			<g>
				<path class="st5" d="M129.7,101.3v8.3h-30V71.5h0.1c3.4,0,6.6,0.6,9.6,1.6c3,1,5.8,2.5,8.3,4.4
					C125.1,82.9,129.7,91.6,129.7,101.3z"/>
			</g>
			<g>
				<g>
					<path class="st6" d="M136,92.9l-3.9,5.4h-9.3l7.1-9.8c2.6-3.7,2.2-8.6-1-11.8c-3.6-3.6-9.4-3.6-12.9,0l-0.8,0.8v21.1H85.9V78.7
						l-2.1-2.1c-3.6-3.6-9.4-3.6-12.9,0c-3.2,3.2-3.6,8.2-1,11.8l7.1,9.8h-9.3l-3.9-5.4c-4.8-6.7-4.1-15.8,1.8-21.6
						c5.5-5.5,13.9-6.3,20.4-2.5v0c0-3.5,1.2-6.7,3.2-9.2c1.3-1.7,3-3,5-4c1.9-0.9,4-1.5,6.3-1.5c0,0,0.1,0,0.1,0
						c4.3,0,8.2,1.9,10.8,4.8c2.2,2.4,3.6,5.6,3.7,9.1c6.2-3,13.9-1.9,19.1,3.2C140,77.1,140.8,86.2,136,92.9z"/>
				</g>
				<g>
					<path class="st7" d="M136,92.9l-3.9,5.4h-9.3l7.1-9.8c2.6-3.7,2.2-8.6-1-11.8c-3.6-3.6-9.4-3.6-12.9,0l-0.8,0.8v21.1h-14.7
						V54.2c0,0,0.1,0,0.1,0c4.3,0,8.2,1.9,10.8,4.8c2.2,2.4,3.6,5.6,3.7,9.1c6.2-3,13.9-1.9,19.1,3.2C140,77.1,140.8,86.2,136,92.9z
						"/>
				</g>
				<g>
					<circle class="st8" cx="100.4" cy="69" r="8.3"/>
				</g>
				<g>
					<g>
						<rect x="68.4" y="98.2" class="st6" width="63" height="14.7"/>
					</g>
					<g>
						<rect x="99.9" y="98.2" class="st7" width="31.5" height="14.7"/>
					</g>
					<g>
						<rect x="67" y="98.2" class="st8" width="65.6" height="3.5"/>
					</g>
					<g>
						<rect x="67" y="109.4" class="st8" width="65.6" height="3.5"/>
					</g>
					<g>
						<rect x="67" y="104.5" class="st8" width="65.6" height="2.1"/>
					</g>
				</g>
				<g>
					<g>
						<ellipse class="st4" cx="100.4" cy="69" rx="6.9" ry="6.9"/>
					</g>
					<g>
						<path class="st9" d="M94.9,70.7c-0.2-0.6-0.3-1.2-0.3-1.8c0-0.9,0.2-1.9,0.7-2.7l0.6,0.3c-0.4,0.7-0.6,1.6-0.6,2.4
							c0,0.5,0.1,1.1,0.2,1.6L94.9,70.7z"/>
					</g>
					<g>
						<path class="st9" d="M96.3,65.8l-0.5-0.4c0.2-0.3,0.5-0.6,0.8-0.9l0.4,0.5C96.8,65.3,96.6,65.5,96.3,65.8z"/>
					</g>
					<g>
						<path class="st5" d="M107.3,69c0,3.8-3.1,6.9-6.9,6.9V62C104.2,62,107.3,65.1,107.3,69z"/>
					</g>
				</g>
			</g>
		</g>
		<g>
			<g>
				<polygon class="st9" points="93.5,80.4 93.5,80.4 93.5,80.4 				"/>
			</g>
			<g>
				<polygon class="st9" points="88.6,80.4 88.6,80.4 88.6,80.4 				"/>
			</g>
			<g>
				<path class="st9" d="M93.5,80.4c-0.7,0-1.2-0.3-1.6-0.6c0.1-0.4,0.4-0.6,0.4-0.6s-0.2,0.2-0.6,0.4c-0.5-0.7-0.6-1.6-0.6-1.6
					s-0.1,0.9-0.6,1.6c-0.2-0.1-0.4-0.2-0.6-0.4c0.2,0.2,0.3,0.4,0.4,0.6c-0.4,0.4-0.9,0.6-1.6,0.6c0.7,0,1.2,0.3,1.6,0.6
					c-0.1,0.4-0.4,0.6-0.4,0.6s0.2-0.2,0.6-0.4c0.5,0.7,0.6,1.6,0.6,1.6s0.1-0.9,0.6-1.6c0.2,0.1,0.4,0.2,0.6,0.4
					c-0.2-0.2-0.3-0.4-0.4-0.6C92.2,80.7,92.7,80.4,93.5,80.4z"/>
			</g>
			<g>
				<polygon class="st9" points="92.2,81.6 92.2,81.6 92.2,81.6 				"/>
			</g>
			<g>
				<polygon class="st9" points="89.8,79.2 89.8,79.2 89.8,79.2 				"/>
			</g>
		</g>
		<g>
			<g>
				<polygon class="st9" points="128.8,101.2 128.8,101.2 128.8,101.2 				"/>
			</g>
			<g>
				<polygon class="st9" points="123.9,101.2 123.9,101.2 123.9,101.2 				"/>
			</g>
			<g>
				<path class="st9" d="M128.8,101.2c-0.7,0-1.2-0.3-1.6-0.6c0.1-0.4,0.4-0.6,0.4-0.6s-0.2,0.2-0.6,0.4c-0.5-0.7-0.6-1.6-0.6-1.6
					s-0.1,0.9-0.6,1.6c-0.2-0.1-0.4-0.2-0.6-0.4c0.2,0.2,0.3,0.4,0.4,0.6c-0.4,0.4-0.9,0.6-1.6,0.6c0.7,0,1.2,0.3,1.6,0.6
					c-0.1,0.4-0.4,0.6-0.4,0.6s0.2-0.2,0.6-0.4c0.5,0.7,0.6,1.6,0.6,1.6s0.1-0.9,0.6-1.6c0.2,0.1,0.4,0.2,0.6,0.4
					c-0.2-0.2-0.3-0.4-0.4-0.6C127.5,101.4,128,101.2,128.8,101.2z"/>
			</g>
			<g>
				<polygon class="st9" points="127.5,102.4 127.5,102.4 127.5,102.4 				"/>
			</g>
			<g>
				<polygon class="st9" points="125.1,99.9 125.1,100 125.1,99.9 				"/>
			</g>
		</g>
		<g>
			<g>
				<polygon class="st9" points="65.5,88.5 65.5,88.5 65.5,88.5 				"/>
			</g>
			<g>
				<polygon class="st9" points="63.1,88.5 63.1,88.5 63.1,88.5 				"/>
			</g>
			<g>
				<path class="st9" d="M65.5,88.5c-0.4,0-0.6-0.1-0.8-0.3c0.1-0.2,0.2-0.3,0.2-0.3s-0.1,0.1-0.3,0.2c-0.3-0.4-0.3-0.8-0.3-0.8
					s0,0.5-0.3,0.8c-0.1,0-0.2-0.1-0.3-0.2c0.1,0.1,0.2,0.2,0.2,0.3c-0.2,0.2-0.4,0.3-0.8,0.3c0.4,0,0.6,0.1,0.8,0.3
					c-0.1,0.2-0.2,0.3-0.2,0.3s0.1-0.1,0.3-0.2c0.3,0.4,0.3,0.8,0.3,0.8s0-0.5,0.3-0.8c0.1,0,0.2,0.1,0.3,0.2
					c-0.1-0.1-0.2-0.2-0.2-0.3C64.9,88.6,65.1,88.5,65.5,88.5z"/>
			</g>
			<g>
				<polygon class="st9" points="64.9,89.1 64.9,89.1 64.9,89.1 				"/>
			</g>
			<g>
				<polygon class="st9" points="63.7,87.9 63.7,87.9 63.7,87.9 				"/>
			</g>
		</g>
		<g>
			<g>
				<polygon class="st9" points="132.2,71.5 132.2,71.5 132.2,71.5 				"/>
			</g>
			<g>
				<polygon class="st9" points="129.7,71.5 129.7,71.5 129.7,71.5 				"/>
			</g>
			<g>
				<path class="st9" d="M132.2,71.5c-0.4,0-0.6-0.1-0.8-0.3c0.1-0.2,0.2-0.3,0.2-0.3s-0.1,0.1-0.3,0.2c-0.3-0.4-0.3-0.8-0.3-0.8
					s0,0.5-0.3,0.8c-0.1,0-0.2-0.1-0.3-0.2c0.1,0.1,0.2,0.2,0.2,0.3c-0.2,0.2-0.4,0.3-0.8,0.3c0.4,0,0.6,0.1,0.8,0.3
					c-0.1,0.2-0.2,0.3-0.2,0.3s0.1-0.1,0.3-0.2c0.3,0.4,0.3,0.8,0.3,0.8s0-0.5,0.3-0.8c0.1,0,0.2,0.1,0.3,0.2
					c-0.1-0.1-0.2-0.2-0.2-0.3C131.5,71.6,131.8,71.5,132.2,71.5z"/>
			</g>
			<g>
				<polygon class="st9" points="131.6,72.1 131.6,72.1 131.6,72.1 				"/>
			</g>
			<g>
				<polygon class="st9" points="130.3,70.9 130.3,70.9 130.3,70.9 				"/>
			</g>
		</g>
	</g>
	<g>
		<path class="st10" d="M163.9,149c-41.9-6-84.5-6-126.4,0c-3.7,0.5-7.2-2-7.8-5.7c-0.7-4.7-1.5-9.5-2.2-14.2
			c-0.6-3.7,2.2-7.2,6.1-7.8c44.6-6.4,89.8-6.4,134.4,0c4,0.6,6.7,4.1,6.1,7.8c-0.7,4.7-1.5,9.5-2.2,14.2
			C171.2,147,167.6,149.5,163.9,149z"/>
	</g>
	<g>
		<g>
			<path class="st11" d="M56.6,135.2c-0.3,0.1-0.5,0.1-0.7,0.1c-0.2-0.1-0.4-0.2-0.5-0.4c-0.1-0.2-0.2-0.5-0.1-0.7
				c0.1-0.2,0.2-0.4,0.5-0.5c1.9-1,3.4-1.9,4.4-2.7c1.2-0.9,2.3-1.9,3.2-2.9c0.3-0.3,0.7-0.5,1.1-0.6c0.4-0.1,0.8,0,1.1,0.2
				c1.3,0.8,2.6,1.5,4,2.1c1.2,0.5,2.8,1,4.9,1.4c0.3,0.1,0.5,0.2,0.6,0.4c0.1,0.2,0.1,0.4,0.1,0.7c-0.1,0.3-0.2,0.5-0.4,0.6
				c-0.2,0.1-0.4,0.1-0.7,0.1c-0.9-0.2-2.1-0.6-3.6-1.1c0,0,0,0.1,0,0.1c0,0.2,0,0.4-0.2,0.6c-0.1,0.2-0.3,0.3-0.6,0.3
				c-2.9,0.3-5.8,0.7-8.7,1.1c-0.3,0-0.5,0-0.7-0.2c-0.2-0.1-0.3-0.3-0.3-0.6c0,0,0,0,0,0C58.7,134,57.6,134.7,56.6,135.2z
				 M57.5,126.1c-0.1,0.3-0.2,0.6-0.3,0.9c-0.4,0.9-0.8,1.6-1.2,2.1c-0.2,0.2-0.4,0.4-0.6,0.4c-0.2,0-0.4,0-0.6-0.1
				c-0.2-0.2-0.3-0.4-0.3-0.5c0-0.2,0-0.5,0.2-0.7c0.5-0.7,0.9-1.3,1.1-2c0.3-0.7,0.6-1.5,0.7-2.4c0-0.3,0.2-0.5,0.4-0.6
				c0.2-0.1,0.4-0.2,0.6-0.2c0.2,0,0.4,0.2,0.6,0.3c0.1,0.2,0.2,0.4,0.1,0.7c0,0.1-0.1,0.2-0.1,0.4c1.6-0.2,3.2-0.4,4.8-0.7
				c0.3,0,0.5,0,0.6,0.1c0.2,0.1,0.3,0.3,0.3,0.6c0,0.2,0,0.4-0.2,0.6c-0.1,0.2-0.3,0.3-0.6,0.3c-0.7,0.1-1.5,0.2-2.2,0.3
				c0.2,0.5,0.5,1.1,0.7,1.7c0.1,0.3,0.1,0.5,0,0.7c-0.1,0.2-0.3,0.3-0.5,0.4c-0.2,0.1-0.5,0.1-0.6,0c-0.2-0.1-0.4-0.3-0.5-0.6
				c-0.3-0.8-0.6-1.5-0.9-1.9c0,0,0,0-0.1-0.1C58.4,126,58,126,57.5,126.1z M61.1,141.7c-0.4,0-0.8-0.1-1.2-0.3
				c-0.4-0.3-0.6-0.7-0.7-1.1c-0.1-1-0.3-2-0.4-3c-0.1-0.4,0-0.9,0.3-1.3c0.3-0.4,0.7-0.6,1.1-0.6c0.2,0,0.5-0.1,0.7-0.1
				c3.3-0.5,6.7-0.9,10-1.2c0.5-0.1,0.9,0.1,1.3,0.4c0.3,0.3,0.5,0.7,0.6,1.1c0.1,1,0.2,2,0.3,3c0,0.4-0.1,0.8-0.4,1.2
				c-0.3,0.4-0.7,0.6-1.1,0.6C68.1,140.8,64.6,141.2,61.1,141.7z M70.4,135.8c-3.1,0.3-6.2,0.7-9.3,1.1c-0.2,0-0.4,0.1-0.5,0.3
				c-0.1,0.2-0.1,0.3-0.1,0.5c0.1,0.5,0.2,1.1,0.2,1.6c0,0.2,0.1,0.3,0.2,0.4c0.2,0.1,0.3,0.1,0.5,0.1c3.1-0.4,6.1-0.8,9.2-1.1
				c0.2,0,0.4-0.1,0.4-0.2c0.1-0.1,0.1-0.3,0.1-0.5c-0.1-0.6-0.1-1.1-0.2-1.7c0-0.2-0.1-0.3-0.2-0.4
				C70.8,135.9,70.6,135.8,70.4,135.8z M69,131.1c-1.5-0.6-2.7-1.2-3.6-1.8c-0.2-0.1-0.5-0.2-0.7-0.1c-0.3,0-0.5,0.1-0.6,0.3
				c-0.7,0.8-1.6,1.6-2.8,2.5C63.9,131.7,66.4,131.4,69,131.1z M66.6,124.9c0,0.1-0.1,0.2-0.1,0.2c-0.3,0.7-0.6,1.3-0.9,1.7
				c-0.2,0.2-0.4,0.4-0.6,0.4c-0.2,0-0.4,0-0.6-0.1c-0.2-0.2-0.3-0.3-0.3-0.5c0-0.2,0-0.5,0.2-0.7c0.4-0.5,0.6-1,0.8-1.5
				c0.2-0.6,0.4-1.2,0.5-1.8c0-0.3,0.2-0.5,0.4-0.6c0.2-0.1,0.4-0.2,0.6-0.2c0.3,0,0.4,0.1,0.6,0.3c0.1,0.2,0.2,0.4,0.1,0.7
				c0,0.1-0.1,0.3-0.1,0.4c2.1-0.2,4.3-0.5,6.4-0.6c0.3,0,0.5,0,0.6,0.2c0.2,0.1,0.3,0.3,0.3,0.6c0,0.2-0.1,0.4-0.2,0.6
				c-0.1,0.2-0.3,0.3-0.6,0.3c-1,0.1-2,0.2-3,0.3c0.3,0.5,0.6,1.1,0.9,1.8c0.1,0.3,0.1,0.5,0,0.7c-0.1,0.2-0.3,0.4-0.5,0.5
				c-0.2,0.1-0.5,0.1-0.7,0c-0.2-0.1-0.4-0.3-0.5-0.5c-0.4-1-0.9-1.7-1.2-2.2C68,124.8,67.3,124.8,66.6,124.9z"/>
			<path class="st11" d="M80,139.7c-0.1,0.3-0.3,0.4-0.5,0.5c-0.2,0-0.4,0-0.6-0.1c-0.2-0.1-0.4-0.3-0.4-0.5c-0.1-0.2-0.1-0.5,0-0.7
				c0.5-1,0.8-1.9,0.9-2.8c0.2-1,0.3-2.1,0.3-3.3c0-0.3,0.1-0.5,0.2-0.7c0.1-0.1,0.3-0.2,0.6-0.2c0.2,0,0.4,0.1,0.6,0.2
				c0.2,0.2,0.3,0.4,0.3,0.7c0,0.7-0.1,1.3-0.1,1.9c0.4,0.5,0.7,0.8,1.1,1.1c0.1,0.2,0.3,0.3,0.6,0.5c-0.1-1.8-0.2-3.6-0.3-5.3
				c-1.3,0.1-2.5,0.2-3.8,0.3c-0.3,0-0.5-0.1-0.6-0.2c-0.2-0.1-0.3-0.3-0.3-0.6c0-0.2,0.1-0.4,0.2-0.6c0.1-0.2,0.3-0.3,0.6-0.3
				c2.8-0.2,5.5-0.4,8.3-0.5c0.3,0,0.5,0,0.6,0.2c0.2,0.1,0.2,0.3,0.3,0.6c0,0.2-0.1,0.4-0.2,0.6c-0.1,0.2-0.3,0.3-0.6,0.3
				c-0.9,0-1.8,0.1-2.7,0.1c0,0.7,0.1,1.3,0.1,2c0.8,0,1.5-0.1,2.3-0.1c0.3,0,0.5,0,0.6,0.2c0.2,0.1,0.2,0.3,0.3,0.6
				c0,0.2-0.1,0.4-0.2,0.6c-0.1,0.2-0.3,0.3-0.6,0.3c-0.8,0-1.5,0.1-2.3,0.1c0,0.9,0.1,1.7,0.1,2.6c0,0,0,0,0,0
				c0.5,0.1,1.2,0.2,2,0.3c0.6,0,1.6,0,2.8,0c2.6-0.1,5.2-0.2,7.8-0.2c0.3,0,0.5,0.1,0.7,0.2c0.2,0.2,0.3,0.4,0.3,0.6
				c0,0.2-0.1,0.5-0.2,0.6c-0.2,0.2-0.4,0.3-0.7,0.3c-2.4,0-4.7,0.1-7.1,0.1c-1.3,0-2.5,0-3.7-0.1c-0.8-0.1-1.5-0.2-2.1-0.4
				c-0.5-0.1-1.1-0.3-1.6-0.6c-0.6-0.3-1-0.6-1.4-0.9c-0.1-0.1-0.2-0.2-0.3-0.3C80.7,138,80.4,139,80,139.7z M79.6,128.7
				c-0.3,0-0.6-0.1-0.8-0.3c-0.2-0.3-0.4-0.5-0.4-0.9c-0.1-1.6-0.2-3.2-0.4-4.8c0-0.3,0-0.5,0.3-0.8c0.2-0.2,0.5-0.3,0.8-0.4
				c0.3,0,0.6,0,0.9-0.1c1.6-0.1,3.2-0.2,4.9-0.3c0.4,0,0.7,0.1,1,0.3c0.2,0.2,0.4,0.4,0.4,0.7c0.1,1.6,0.1,3.2,0.2,4.8
				c0,0.3-0.1,0.6-0.4,0.9c-0.3,0.3-0.5,0.4-0.9,0.4C83.3,128.4,81.5,128.5,79.6,128.7z M84.6,124c0-0.3,0-0.7-0.1-1
				c0-0.1,0-0.1-0.1-0.2c-0.1-0.1-0.2-0.1-0.2-0.1c-1.4,0.1-2.8,0.2-4.1,0.2c-0.1,0-0.2,0-0.2,0.1c-0.1,0.1-0.1,0.2-0.1,0.2
				c0,0.3,0,0.7,0.1,1C81.5,124.2,83,124.1,84.6,124z M80,125.8c0,0.4,0.1,0.8,0.1,1.1c0,0.1,0,0.1,0.1,0.2c0.1,0.1,0.1,0.1,0.2,0.1
				c1.4-0.1,2.7-0.2,4.1-0.2c0.1,0,0.2-0.1,0.2-0.1c0-0.1,0.1-0.1,0.1-0.2c0-0.4,0-0.8-0.1-1.1C83.1,125.6,81.6,125.7,80,125.8z
				 M91.9,127.8c0.1-0.2,0.3-0.2,0.6-0.3c0.2,0,0.5,0.1,0.6,0.2c0.2,0.2,0.3,0.4,0.3,0.7c0,0.9,0,1.7,0.1,2.6c0,1-0.1,1.8-0.2,2.3
				c-0.2,0.5-0.5,1-0.8,1.5c-0.4,0.5-0.9,0.8-1.4,1.2c-0.6,0.3-1.3,0.6-2.1,0.7c-0.3,0.1-0.5,0.1-0.8-0.1c-0.2-0.1-0.3-0.3-0.4-0.5
				c-0.1-0.2,0-0.5,0.1-0.7c0.1-0.2,0.3-0.4,0.6-0.4c0.7-0.2,1.2-0.4,1.7-0.6c0.5-0.2,0.8-0.5,1-0.8c0.2-0.3,0.4-0.6,0.5-0.9
				c0.1-0.4,0.2-1,0.2-1.7c0-0.9,0-1.7-0.1-2.6C91.7,128.2,91.7,128,91.9,127.8z M88.1,122.7c-0.3,0-0.5-0.1-0.6-0.2
				c-0.2-0.1-0.3-0.3-0.3-0.6c0-0.2,0.1-0.4,0.2-0.6c0.1-0.2,0.3-0.2,0.6-0.3c2.8-0.1,5.7-0.2,8.5-0.2c0.3,0,0.5,0.1,0.6,0.2
				c0.2,0.1,0.2,0.3,0.2,0.6c0,0.2-0.1,0.4-0.2,0.6c-0.1,0.2-0.3,0.2-0.6,0.3c-1.1,0-2.2,0-3.4,0.1c0,0.5-0.2,1.1-0.3,1.7
				c0.8,0,1.6,0,2.4,0c0.4,0,0.7,0.1,1,0.4c0.2,0.2,0.4,0.5,0.4,0.8c0,2.2,0,4.3,0.1,6.5c0,0.3-0.1,0.5-0.2,0.6
				c-0.2,0.2-0.4,0.2-0.6,0.2c-0.2,0-0.4-0.1-0.6-0.2c-0.2-0.2-0.2-0.4-0.2-0.7c0-1.8-0.1-3.6-0.1-5.4c0-0.2-0.1-0.4-0.2-0.5
				c-0.1-0.1-0.3-0.1-0.5-0.1c-1.1,0-2.2,0-3.4,0.1c-0.2,0-0.3,0.1-0.4,0.2c-0.1,0.1-0.2,0.3-0.2,0.5c0.1,1.8,0.1,3.6,0.2,5.4
				c0,0.3-0.1,0.5-0.2,0.6c-0.2,0.2-0.4,0.2-0.6,0.2c-0.3,0-0.5-0.1-0.6-0.2c-0.2-0.2-0.2-0.4-0.3-0.6c-0.1-2.1-0.2-4.3-0.2-6.4
				c0-0.4,0.1-0.7,0.4-0.9c0.3-0.3,0.6-0.4,0.9-0.4c0.3,0,0.7,0,1,0c0.1,0,0.1,0,0.2,0c0.2-0.7,0.3-1.3,0.4-1.7
				C90.3,122.6,89.2,122.7,88.1,122.7z M93.7,134.6c-0.1-0.2-0.1-0.4,0-0.7c0.1-0.2,0.2-0.4,0.5-0.5c0.2-0.1,0.5-0.1,0.8,0
				c0.7,0.3,1.6,0.7,2.5,1.4c0.2,0.2,0.4,0.4,0.4,0.6c0,0.2,0,0.4-0.1,0.6c-0.2,0.2-0.3,0.3-0.6,0.4c-0.2,0-0.5,0-0.7-0.2
				c-0.8-0.6-1.5-1-2.1-1.2C94,135,93.8,134.8,93.7,134.6z"/>
			<path class="st11" d="M108.7,131.6c0,0.5,0,0.9,0,1.4c-0.1,1.2-0.2,2.1-0.5,2.7c-0.3,0.6-0.7,1.2-1.2,1.7c-0.6,0.5-1.3,1-2.1,1.3
				c-0.9,0.3-1.9,0.6-3,0.7c-0.3,0-0.6,0-0.7-0.2c-0.2-0.1-0.3-0.3-0.4-0.6c0-0.3,0-0.5,0.1-0.7c0.2-0.2,0.4-0.3,0.7-0.4
				c1.1-0.2,1.9-0.4,2.6-0.6c0.7-0.2,1.2-0.6,1.6-0.9c0.3-0.3,0.6-0.7,0.8-1.1c0.2-0.5,0.3-1.2,0.4-2c0-0.5,0-0.9,0-1.4
				c-1.6,0-3.2-0.1-4.8-0.1c-0.3,0-0.5-0.1-0.7-0.3c-0.2-0.2-0.2-0.4-0.2-0.6c0-0.2,0.1-0.4,0.2-0.6c0.2-0.2,0.4-0.2,0.7-0.2
				c5.8,0.1,11.5,0.3,17.3,0.7c0.3,0,0.5,0.1,0.6,0.3c0.1,0.2,0.2,0.4,0.2,0.6c0,0.2-0.1,0.4-0.3,0.6c-0.2,0.2-0.4,0.2-0.7,0.2
				c-1.7-0.1-3.4-0.2-5.1-0.3c-0.1,1.7-0.2,3.4-0.3,5c0,0.3,0.1,0.5,0.3,0.7c0.2,0.2,0.4,0.3,0.6,0.3c0.8,0.1,1.6,0.1,2.4,0.1
				c0.3,0,0.6-0.1,0.7-0.1c0.2-0.1,0.3-0.2,0.3-0.4c0-0.1,0.1-0.2,0.1-0.4c0-0.2,0.1-0.6,0.2-1.3c0-0.3,0.2-0.5,0.3-0.7
				c0.2-0.1,0.4-0.2,0.7-0.2c0.2,0.1,0.4,0.2,0.6,0.3c0.1,0.2,0.2,0.5,0.2,0.7c-0.2,0.9-0.3,1.6-0.3,1.8c-0.1,0.3-0.2,0.5-0.3,0.7
				c-0.1,0.2-0.2,0.4-0.4,0.6c-0.2,0.1-0.4,0.3-0.7,0.4c-0.3,0.1-0.7,0.2-1.1,0.2c-1.1,0-2.3-0.1-3.4-0.2c-0.4-0.1-0.8-0.2-1.1-0.5
				c-0.6-0.5-0.9-1-0.8-1.7c0.1-1.9,0.2-3.8,0.3-5.6C111.2,131.7,109.9,131.7,108.7,131.6z M109.9,121.5c-0.1-0.3-0.1-0.5,0-0.8
				c0.1-0.2,0.3-0.4,0.6-0.5c0.3-0.1,0.5-0.1,0.7,0c0.2,0.1,0.4,0.3,0.5,0.6c0.2,0.4,0.3,1,0.4,1.7c2.4,0.1,4.7,0.2,7.1,0.4
				c0.3,0,0.6,0.1,0.9,0.3c0.2,0.2,0.4,0.4,0.5,0.7c0.1,0.3,0.2,0.7,0.1,1.2c-0.1,0.7-0.3,1.4-0.5,2.1c-0.1,0.3-0.3,0.5-0.5,0.6
				c-0.2,0.1-0.4,0.1-0.7,0c-0.3-0.1-0.4-0.3-0.5-0.5c-0.1-0.2-0.1-0.5,0-0.7c0.2-0.8,0.3-1.3,0.3-1.5c-0.1-0.3-0.2-0.4-0.5-0.4
				c-4.7-0.3-9.5-0.5-14.2-0.6c-0.2,0-0.3,0-0.4,0.2c-0.1,0.1-0.2,0.3-0.2,0.4c0,0.6,0,1.1,0,1.7c0,0.3-0.1,0.5-0.3,0.7
				c-0.2,0.1-0.4,0.2-0.6,0.2c-0.3,0-0.5-0.1-0.6-0.3c-0.2-0.2-0.3-0.4-0.3-0.7c0-0.8,0-1.6,0-2.4c0-0.4,0.1-0.8,0.5-1.1
				c0.4-0.3,0.7-0.5,1.2-0.4c2.3,0,4.6,0.1,6.8,0.2C110.1,122,110,121.7,109.9,121.5z M115.9,126.5c0.3,0,0.5,0.1,0.6,0.2
				c0.1,0.2,0.2,0.4,0.2,0.6c0,0.2-0.1,0.4-0.3,0.6c-0.2,0.2-0.4,0.2-0.6,0.2c-3.2-0.2-6.5-0.3-9.7-0.4c-0.3,0-0.5-0.1-0.6-0.2
				c-0.2-0.2-0.2-0.4-0.2-0.6c0-0.2,0.1-0.4,0.2-0.6c0.1-0.1,0.4-0.2,0.6-0.2C109.4,126.2,112.6,126.3,115.9,126.5z"/>
			<path class="st11" d="M143.8,126.7c0.3,0.1,0.5,0.2,0.7,0.3c0.2,0.2,0.2,0.4,0.2,0.7c0,0.3-0.2,0.5-0.4,0.6
				c-0.2,0.1-0.5,0.2-0.8,0.1c-2-0.3-4.1-0.6-6.2-0.9c0,0.6,0,1.2,0,1.8c0,1.7,0.1,3.2,0.3,4.6c0.1,0.3,0.1,0.6,0.2,1
				c0.3-0.4,0.6-0.8,0.9-1.2c0.6-1,1.2-2.2,1.9-3.6c0.1-0.2,0.3-0.4,0.5-0.5c0.2-0.1,0.5-0.1,0.7,0c0.2,0.1,0.4,0.3,0.5,0.5
				c0,0.2,0,0.4,0,0.6c-0.7,1.5-1.5,2.9-2.2,4.1c-0.6,0.8-1.1,1.5-1.7,2.1c0,0.1,0.1,0.1,0.1,0.2c0.3,0.9,0.6,1.7,1,2.4
				c0.3,0.6,0.6,0.9,0.8,0.9c0.2,0,0.3-0.1,0.4-0.4c0.1-0.4,0.3-1.2,0.6-2.5c0.1-0.3,0.2-0.5,0.5-0.6c0.2-0.1,0.4-0.1,0.7,0
				c0.2,0.1,0.4,0.2,0.5,0.5c0.1,0.2,0.1,0.5,0,0.7c-0.3,1.3-0.5,2.3-0.7,2.8c-0.2,0.5-0.4,0.8-0.6,1.1c-0.2,0.3-0.4,0.5-0.6,0.5
				c-0.2,0.1-0.5,0.1-0.8,0c-0.4-0.1-0.7-0.2-1-0.5c-0.4-0.3-0.7-0.8-1.1-1.4c-0.4-0.7-0.8-1.4-1.1-2.3c-0.2,0.1-0.3,0.2-0.4,0.4
				c-1.4,1.1-3,2.1-4.7,2.8c-0.3,0.2-0.6,0.2-0.8,0.1c-0.2-0.1-0.4-0.2-0.6-0.4c-0.1-0.2-0.1-0.5-0.1-0.7c0.1-0.3,0.3-0.5,0.5-0.6
				c1.8-0.8,3.4-1.7,4.8-2.8c0.3-0.2,0.5-0.5,0.7-0.7c-0.2-1-0.4-2-0.5-2.9c-0.2-1.6-0.3-3.3-0.3-5.2c0-0.4,0-0.7,0-1.1
				c-2.5-0.3-5-0.6-7.4-0.8c-0.2,0-0.4,0-0.5,0.1c-0.1,0.1-0.2,0.2-0.2,0.4c-0.1,0.6-0.1,1.2-0.2,1.8c0.1,0,0.2,0,0.4,0
				c1.5,0.2,3.1,0.3,4.6,0.5c0.5,0.1,0.9,0.3,1.2,0.6c0.3,0.4,0.4,0.8,0.3,1.2c-0.3,1.1-0.7,2.5-1.2,4.2c-0.4,1.1-0.7,1.8-0.9,2.1
				c-0.3,0.3-0.5,0.4-0.9,0.5c-0.4,0.1-0.9,0.1-1.4,0c-0.6-0.1-1-0.3-1.4-0.4c-0.3-0.2-0.5-0.4-0.6-0.6c-0.1-0.3,0-0.5,0.1-0.8
				c0.1-0.2,0.3-0.4,0.6-0.5c0.2-0.1,0.5,0,0.8,0.1c0.2,0.1,0.5,0.3,0.8,0.3c0.2,0.1,0.4,0.1,0.6,0c0.2-0.1,0.3-0.2,0.4-0.4
				c0.2-0.3,0.4-0.9,0.6-1.7c0.2-0.8,0.4-1.6,0.6-2.4c0-0.3,0-0.5-0.1-0.7c-0.1-0.2-0.3-0.3-0.6-0.3c-1.2-0.1-2.4-0.3-3.6-0.4
				c-0.1,0-0.3-0.1-0.4-0.1c-0.1,0.8-0.2,1.7-0.2,2.5c-0.1,0.9-0.3,1.9-0.5,3c-0.2,0.9-0.5,1.8-0.9,2.6c-0.4,0.7-0.7,1.4-1.1,1.9
				c-0.2,0.2-0.4,0.4-0.7,0.4c-0.2,0-0.4-0.1-0.6-0.2c-0.2-0.2-0.3-0.4-0.3-0.6c0-0.2,0.1-0.4,0.3-0.7c0.6-0.9,1-1.9,1.4-2.9
				c0.4-1.3,0.6-2.6,0.8-4c0.2-2,0.4-4,0.6-6c0-0.5,0.2-0.9,0.6-1.1c0.3-0.3,0.8-0.4,1.3-0.3c2.7,0.3,5.4,0.6,8.1,0.9
				c0.1-0.8,0.1-1.6,0.2-2.3c0-0.3,0.1-0.5,0.3-0.6c0.2-0.2,0.5-0.2,0.8-0.2c0.3,0,0.5,0.2,0.6,0.4c0.1,0.2,0.1,0.4,0.1,0.6
				c-0.1,0.8-0.2,1.6-0.2,2.4c1.3,0.2,2.5,0.3,3.8,0.5c-0.1-0.1-0.2-0.2-0.3-0.4c-0.4-0.6-0.8-1.1-1.2-1.4c-0.2-0.2-0.3-0.4-0.3-0.6
				c0-0.2,0.1-0.4,0.3-0.6c0.2-0.2,0.4-0.3,0.6-0.2c0.2,0,0.5,0.1,0.7,0.3c0.5,0.4,1,1,1.4,1.7c0.2,0.2,0.2,0.5,0.2,0.7
				c-0.1,0.2-0.2,0.4-0.4,0.5c-0.1,0-0.1,0.1-0.2,0.1C142.6,126.5,143.2,126.6,143.8,126.7z"/>
		</g>
	</g>
</g>
</svg>
