<?xml version="1.0" encoding="utf-8"?>
<!-- Generator: Adobe Illustrator 21.0.0, SVG Export Plug-In . SVG Version: 6.00 Build 0)  -->
<svg version="1.1" id="mx_n_1514948502218" xmlns="http://www.w3.org/2000/svg" xmlns:xlink="http://www.w3.org/1999/xlink" x="0px"
	 y="0px" viewBox="0 0 226.6 200" style="enable-background:new 0 0 226.6 200;" xml:space="preserve">
<style type="text/css">
	.st0{fill:#1E1E1E;}
	.st1{stroke:#000000;stroke-miterlimit:10;}
	.st2{fill:#1AFA29;}
	.st3{fill:url(#SVGID_1_);stroke:url(#SVGID_2_);stroke-miterlimit:10;}
	.st4{fill:url(#SVGID_3_);stroke:url(#SVGID_4_);stroke-miterlimit:10;}
	.st5{fill:url(#SVGID_5_);stroke:url(#SVGID_6_);stroke-miterlimit:10;}
	.st6{fill:url(#SVGID_7_);stroke:url(#SVGID_8_);stroke-miterlimit:10;}
	.st7{fill:url(#SVGID_9_);stroke:url(#SVGID_10_);stroke-miterlimit:10;}
	.st8{fill:url(#SVGID_11_);}
</style>
<path class="st0" d="M226,157.1c-25.9-17-68.5-28.1-116.8-28.1c-37.5,0-70.1,3.8-95.6,14.7c17.7-3.6,35.7-2.7,56.3-2.7
	c54.1,0,101.2,13.9,125.4,34.5c4.8-3.4-2.1-17.7-2.1-17.7S220.6,159.8,226,157.1z"/>
<g>
	<g>
		<path class="st1" d="M22,92.4c1.2,9,2.5,17.9,3.7,26.9c0.3,2.5-1.6,4-5.6,4.6c-4.1,0.6-6.3-0.3-6.7-2.8C10,99.5,6.6,77.9,3.2,56.3
			c-0.3-1.7,0.1-3.1,1.2-4.3c0.8-0.8,1.8-1.3,3.1-1.5C8,50.5,8.2,50.5,8,50.5c5.3-0.8,10.6-1.5,15.9-2.2c6.3-0.8,11.6,0.3,15.8,3.3
			c4.6,3.2,7.2,8.5,7.9,15.9c0.7,7.4-0.7,13-4.3,16.9c-1.8,1.9-3.8,3.4-6,4.6c5.4,7.2,10.6,14.5,15.7,21.8c0.9,1.2,1.3,2.7,1.1,4.4
			c-0.3,1.7-1.2,2.9-2.7,3.9c-1.4,0.9-2.9,1.3-4.7,1.1c-1.6-0.1-3-1-4.1-2.5c-6.1-8.6-12.5-17.1-19-25.5
			C23.2,92.3,22.6,92.3,22,92.4z M20.4,80.3c2.5-0.3,5-0.7,7.5-1c2.1-0.3,3.8-1.2,5-2.9c1.3-1.7,1.8-4.2,1.4-7.5
			c-0.4-3.4-1.4-5.8-2.9-7.2c-1.5-1.2-3.5-1.7-5.9-1.4c-2.6,0.3-5.2,0.7-7.7,1C18.6,67.7,19.5,74,20.4,80.3z"/>
		<path class="st1" d="M64.3,111.6c-4.2-4.5-6.6-10.6-7.3-18.4c-0.7-7.8,0.8-14.3,4.7-19.5c3.7-4.5,8-6.9,12.6-7.2
			c6.7-0.4,11.7,1.8,15.1,6.5c2.4,3.5,3.7,9.2,4,17.2c0,1.7-0.4,3-1.3,3.9c-0.8,0.9-2.3,1.4-4.5,1.5c-6.4,0.3-12.7,0.6-19,1.1
			c0.6,2.9,1.4,5.1,2.6,6.6c1.7,2.1,3.5,3.1,5.5,2.9c1.4-0.1,2.7-0.4,3.7-1c1.1-0.5,2.1-1.5,3.1-3c0.6-1.3,1.7-2.1,3.1-2.6
			c1.4-0.4,3-0.1,4.5,0.8c1.5,1.1,2.3,2.4,2.3,3.8c0.1,1.4-0.2,2.7-0.8,3.8c-2,2.8-4.2,4.9-6.5,6.3c-2.4,1.4-5.3,2.2-8.7,2.4
			C72.2,117.1,67.9,115.4,64.3,111.6z M80.9,85.2c0.7-0.1,1.1-0.6,1-1.6c-0.1-2.2-0.7-3.9-1.8-5c-1.2-1.2-2.9-1.7-5.1-1.6
			c-2.1,0.2-3.8,1.5-5.2,4c-0.7,1.4-1.2,3-1.5,5C72.5,85.7,76.7,85.4,80.9,85.2z"/>
		<path class="st1" d="M115.3,76.8c-1.2,1.1-2.5,1.8-4.1,2.2c-1.6,0.3-3.1,0-4.5-0.8c-1.6-1.2-2.3-2.6-2.2-4.3
			c0.2-1.8,1.2-3.3,2.9-4.7c3.3-2.7,6.8-4,10.6-4c4.7,0,8.4,1.6,10.9,4.6c2.8,3.4,4.1,7.7,3.9,12.9c0,1-0.1,2.1-0.1,3.3
			c-0.2,6.1-0.3,12.2-0.5,18.3c-0.1,2.7,0,5.4,0.1,8.1c0,0.9-0.5,1.7-1.3,2.3c-1,0.7-2.4,1-4.1,0.9c-1.8,0-3.2-0.6-4.1-1.7
			c0,0-0.1-0.1-0.1-0.1c-2,1.2-4,1.8-6,1.8c-4.3,0-7.9-1.5-10.6-4.6c-2.9-3.2-4.4-7.6-4.5-13.1c-0.1-5.5,1.5-10.1,5-13.8
			c2.8-2.9,6.3-4.3,10.4-4.3c1.4,0.1,2.9,0.3,4.3,0.9c-0.2-1.4-0.4-2.4-0.7-3.1c-0.6-1.2-1.4-1.8-2.7-1.8
			C117,75.8,116.1,76.1,115.3,76.8z M121.4,97.1c-0.2-2.6-0.8-4.4-1.8-5.4c-0.9-0.9-1.7-1.3-2.5-1.3c-1.3,0-2.3,0.5-3,1.5
			c-0.9,1.3-1.4,3.2-1.4,5.9c0,2.6,0.4,4.4,1.2,5.5c0.9,1.1,1.8,1.7,2.8,1.7c0.9,0,1.8-0.7,2.8-2.1
			C120.6,101.6,121.2,99.7,121.4,97.1C121.4,97.1,121.4,97.1,121.4,97.1z"/>
		<path class="st1" d="M157.4,117c-5-0.3-8.8-2.5-11.5-6.7c-2.9-4.7-4.3-11.5-3.9-20.7c0.3-7.8,2.3-13.6,5.9-17.6
			c3.9-3.9,8.1-5.7,12.7-5.4c2.3,0.1,4.3,0.8,6.2,2.1c0.3-4.2,0.6-8.4,0.9-12.5c0.2-2.2,2.3-3.1,6.2-2.8c3.9,0.3,5.8,1.6,5.6,3.8
			c-1.4,15.2-2.7,30.4-4.1,45.6c-0.3,3-0.3,6.3-0.1,9.8c0,1.1-0.4,2.2-1,3.2c-0.6,1.1-1.9,1.8-3.9,2.2c-1.9,0.1-3.3-0.3-4.3-1.2
			c-0.7-0.7-1.2-1.7-1.5-2.9C162,116,159.6,117.1,157.4,117z M165.2,90.9c0.1-4.3-0.3-7.6-1.2-10c-1.1-2.5-2.5-3.7-4-3.8
			c-1.6-0.1-3,0.9-4.4,2.9c-1.4,2.3-2.2,5.7-2.4,10c-0.3,5.8,0,9.9,1,12.3c1.1,2.5,2.4,3.8,3.9,3.9c1.2,0,2.6-1.3,4.1-3.9
			C163.6,100.2,164.6,96.3,165.2,90.9C165.2,91,165.2,91,165.2,90.9z"/>
		<path class="st1" d="M214.4,76.1c2-3.1,4.5-4,7.5-2.6c3.5,1.9,4.2,4.6,2.1,7.9c-6.8,10.8-13.4,21.7-19.8,32.7
			c-5,9.4-10.3,13.7-16.1,13.1c-2.9-0.4-5.2-2-7.2-4.9c-1-1.6-1.5-3-1.6-4.2c-0.2-1.6,0.3-3,1.5-4.1c1.2-0.9,2.4-1.4,3.8-1.3
			c1.2,0.1,1.9,0.5,2.2,1.3c0.8,1.7,1.6,2.5,2.4,2.6c0.5,0,1.6-1.1,3.2-3.3c1-1.8,2-3.6,3.1-5.5c-2.5-10.4-5.1-20.8-7.9-31.1
			c-1.1-3.8,0.2-6.1,3.9-6.9c3.5-0.7,5.8,0.8,6.8,4.6c1.7,6.7,3.4,13.5,4.9,20.2C206.8,88.4,210.6,82.2,214.4,76.1z"/>
	</g>
</g>
<g>
	<linearGradient id="SVGID_1_" gradientUnits="userSpaceOnUse" x1="-4.9181" y1="77.8245" x2="57.9416" y2="94.6677">
		<stop  offset="0" style="stop-color:#FFFFA1"/>
		<stop  offset="8.925462e-02" style="stop-color:#F9F18E"/>
		<stop  offset="0.4043" style="stop-color:#E6C252"/>
		<stop  offset="0.672" style="stop-color:#D8A125"/>
		<stop  offset="0.8789" style="stop-color:#CF8C0A"/>
		<stop  offset="1" style="stop-color:#CC8400"/>
	</linearGradient>
	<linearGradient id="SVGID_2_" gradientUnits="userSpaceOnUse" x1="1.0489" y1="85.1245" x2="53.2235" y2="85.1245">
		<stop  offset="0" style="stop-color:#FFFC94"/>
		<stop  offset="1" style="stop-color:#E99600"/>
	</linearGradient>
	<path class="st3" d="M20.5,91.5c1.2,9,2.5,17.9,3.7,26.9c0.3,2.5-1.6,4-5.6,4.6c-4.1,0.6-6.3-0.3-6.7-2.8C8.5,98.6,5.1,77,1.6,55.4
		c-0.3-1.7,0.1-3.1,1.2-4.3c0.8-0.8,1.8-1.3,3.1-1.5c0.6-0.1,0.8-0.1,0.6-0.1c5.3-0.8,10.6-1.5,15.9-2.2c6.3-0.8,11.6,0.3,15.8,3.3
		c4.6,3.2,7.2,8.5,7.9,15.9c0.7,7.4-0.7,13-4.3,16.9c-1.8,1.9-3.8,3.4-6,4.6c5.4,7.2,10.6,14.5,15.7,21.8c0.9,1.2,1.3,2.7,1.1,4.4
		c-0.3,1.7-1.2,2.9-2.7,3.9c-1.4,0.9-2.9,1.3-4.7,1.1c-1.6-0.1-3-1-4.1-2.5c-6.1-8.6-12.5-17.1-19-25.5
		C21.6,91.3,21.1,91.4,20.5,91.5z M18.8,79.4c2.5-0.3,5-0.7,7.5-1c2.1-0.3,3.8-1.2,5-2.9c1.3-1.7,1.8-4.2,1.4-7.5
		c-0.4-3.4-1.4-5.8-2.9-7.2c-1.5-1.2-3.5-1.7-5.9-1.4c-2.6,0.3-5.2,0.7-7.7,1C17.1,66.8,17.9,73.1,18.8,79.4z"/>
	<linearGradient id="SVGID_3_" gradientUnits="userSpaceOnUse" x1="55.0595" y1="85.3298" x2="94.2624" y2="95.8342">
		<stop  offset="0" style="stop-color:#FFFFA1"/>
		<stop  offset="8.925462e-02" style="stop-color:#F9F18E"/>
		<stop  offset="0.4043" style="stop-color:#E6C252"/>
		<stop  offset="0.672" style="stop-color:#D8A125"/>
		<stop  offset="0.8789" style="stop-color:#CF8C0A"/>
		<stop  offset="1" style="stop-color:#CC8400"/>
	</linearGradient>
	<linearGradient id="SVGID_4_" gradientUnits="userSpaceOnUse" x1="54.821" y1="90.5955" x2="92.3712" y2="90.5955">
		<stop  offset="0" style="stop-color:#FFFC94"/>
		<stop  offset="1" style="stop-color:#E99600"/>
	</linearGradient>
	<path class="st4" d="M62.8,110.6c-4.2-4.5-6.6-10.6-7.3-18.4c-0.7-7.8,0.8-14.3,4.7-19.5c3.7-4.5,8-6.9,12.6-7.2
		c6.7-0.4,11.7,1.8,15.1,6.5c2.4,3.5,3.7,9.2,4,17.2c0,1.7-0.4,3-1.3,3.9c-0.8,0.9-2.3,1.4-4.4,1.5c-6.3,0.3-12.7,0.6-19,1.1
		c0.6,2.9,1.4,5.1,2.6,6.6c1.7,2.1,3.5,3.1,5.4,2.9c1.4-0.1,2.7-0.4,3.7-1c1.1-0.5,2.1-1.5,3.1-3c0.6-1.3,1.7-2.1,3.1-2.6
		c1.4-0.4,3-0.1,4.5,0.8c1.5,1.1,2.3,2.4,2.3,3.8c0.1,1.4-0.2,2.7-0.8,3.8c-2,2.8-4.2,4.9-6.5,6.3c-2.4,1.4-5.3,2.2-8.7,2.4
		C70.7,116.1,66.4,114.4,62.8,110.6z M79.3,84.2c0.7-0.1,1.1-0.6,1-1.6c-0.1-2.2-0.7-3.9-1.8-5c-1.2-1.2-2.9-1.7-5.1-1.6
		c-2.1,0.2-3.8,1.5-5.2,4c-0.7,1.4-1.2,3-1.5,5C70.9,84.7,75.1,84.4,79.3,84.2z"/>
	<linearGradient id="SVGID_5_" gradientUnits="userSpaceOnUse" x1="99.5622" y1="85.0288" x2="135.4286" y2="94.6392">
		<stop  offset="0" style="stop-color:#FFFFA1"/>
		<stop  offset="8.925462e-02" style="stop-color:#F9F18E"/>
		<stop  offset="0.4043" style="stop-color:#E6C252"/>
		<stop  offset="0.672" style="stop-color:#D8A125"/>
		<stop  offset="0.8789" style="stop-color:#CF8C0A"/>
		<stop  offset="1" style="stop-color:#CC8400"/>
	</linearGradient>
	<linearGradient id="SVGID_6_" gradientUnits="userSpaceOnUse" x1="99.6042" y1="89.4275" x2="131.7804" y2="89.4275">
		<stop  offset="0" style="stop-color:#FFFC94"/>
		<stop  offset="1" style="stop-color:#E99600"/>
	</linearGradient>
	<path class="st5" d="M113.7,75.8c-1.2,1.1-2.5,1.8-4.1,2.2c-1.6,0.3-3.1,0-4.5-0.8c-1.6-1.2-2.3-2.6-2.2-4.3
		c0.2-1.8,1.2-3.3,2.9-4.7c3.2-2.7,6.8-4,10.6-4c4.7,0,8.4,1.6,10.9,4.6c2.8,3.4,4.1,7.7,3.9,12.9c0,1-0.1,2.1-0.1,3.3
		c-0.2,6.1-0.3,12.2-0.5,18.3c-0.1,2.7,0,5.4,0.1,8.1c0,0.9-0.5,1.7-1.3,2.3c-1,0.7-2.4,1-4.1,0.9c-1.8,0-3.2-0.6-4.1-1.7
		c0,0-0.1-0.1-0.1-0.1c-2,1.2-4,1.8-6,1.8c-4.3,0-7.9-1.5-10.6-4.6c-2.9-3.2-4.4-7.6-4.5-13.1c-0.1-5.5,1.5-10.1,5-13.8
		c2.8-2.9,6.3-4.3,10.4-4.3c1.4,0.1,2.9,0.3,4.3,0.9c-0.2-1.4-0.4-2.4-0.7-3.1c-0.6-1.2-1.4-1.8-2.7-1.8
		C115.4,74.8,114.5,75.1,113.7,75.8z M119.8,96.1c-0.2-2.6-0.8-4.4-1.8-5.4c-0.9-0.9-1.7-1.3-2.5-1.3c-1.3,0-2.3,0.5-3,1.5
		c-0.9,1.3-1.4,3.2-1.4,5.9c0,2.6,0.4,4.4,1.2,5.5c0.9,1.1,1.8,1.7,2.8,1.7c0.9,0,1.8-0.7,2.8-2.1C119,100.6,119.6,98.7,119.8,96.1
		C119.8,96.1,119.8,96.1,119.8,96.1z"/>
	<linearGradient id="SVGID_7_" gradientUnits="userSpaceOnUse" x1="142.0456" y1="78.2897" x2="179.9686" y2="88.4512">
		<stop  offset="0" style="stop-color:#FFFFA1"/>
		<stop  offset="8.925462e-02" style="stop-color:#F9F18E"/>
		<stop  offset="0.4043" style="stop-color:#E6C252"/>
		<stop  offset="0.672" style="stop-color:#D8A125"/>
		<stop  offset="0.8789" style="stop-color:#CF8C0A"/>
		<stop  offset="1" style="stop-color:#CC8400"/>
	</linearGradient>
	<linearGradient id="SVGID_8_" gradientUnits="userSpaceOnUse" x1="139.7919" y1="84.5562" x2="178.3919" y2="84.5562">
		<stop  offset="0" style="stop-color:#FFFC94"/>
		<stop  offset="1" style="stop-color:#E99600"/>
	</linearGradient>
	<path class="st6" d="M155.8,116c-5-0.3-8.8-2.5-11.5-6.7c-2.9-4.7-4.3-11.5-3.9-20.7c0.3-7.8,2.3-13.6,5.9-17.6
		c3.9-3.9,8.1-5.7,12.7-5.4c2.3,0.1,4.3,0.8,6.2,2.1c0.3-4.2,0.6-8.4,0.9-12.5c0.2-2.2,2.3-3.1,6.2-2.8c3.9,0.3,5.8,1.6,5.6,3.8
		c-1.4,15.2-2.7,30.4-4.1,45.6c-0.3,3-0.3,6.3-0.2,9.8c0,1.1-0.4,2.2-1,3.2c-0.6,1.1-1.9,1.8-3.9,2.2c-1.9,0.1-3.3-0.3-4.3-1.2
		c-0.7-0.7-1.2-1.7-1.5-2.9C160.4,115,158,116.1,155.8,116z M163.6,90c0.1-4.3-0.3-7.6-1.2-10c-1.1-2.5-2.5-3.7-4-3.8
		c-1.6-0.1-3,0.9-4.4,2.9c-1.4,2.3-2.2,5.7-2.4,10c-0.3,5.8,0,9.9,1,12.3c1.1,2.5,2.4,3.8,3.9,3.9c1.2,0,2.6-1.3,4.1-3.9
		C162,99.2,163,95.4,163.6,90C163.6,90,163.6,90,163.6,90z"/>
	<linearGradient id="SVGID_9_" gradientUnits="userSpaceOnUse" x1="180.102" y1="93.0764" x2="216.7259" y2="102.8898">
		<stop  offset="0" style="stop-color:#FFFFA1"/>
		<stop  offset="8.925462e-02" style="stop-color:#F9F18E"/>
		<stop  offset="0.4043" style="stop-color:#E6C252"/>
		<stop  offset="0.672" style="stop-color:#D8A125"/>
		<stop  offset="0.8789" style="stop-color:#CF8C0A"/>
		<stop  offset="1" style="stop-color:#CC8400"/>
	</linearGradient>
	<linearGradient id="SVGID_10_" gradientUnits="userSpaceOnUse" x1="177.1409" y1="97.3705" x2="224.0206" y2="97.3705">
		<stop  offset="0" style="stop-color:#FFFC94"/>
		<stop  offset="1" style="stop-color:#E99600"/>
	</linearGradient>
	<path class="st7" d="M212.8,75.1c2-3.1,4.5-4,7.5-2.6c3.5,1.9,4.2,4.6,2,7.9c-6.8,10.8-13.4,21.7-19.8,32.6
		c-5.1,9.4-10.3,13.7-16.1,13c-2.9-0.4-5.2-2-7.2-4.9c-0.9-1.6-1.5-3-1.6-4.2c-0.2-1.6,0.3-3,1.5-4.1c1.2-0.9,2.4-1.4,3.8-1.3
		c1.2,0.1,1.9,0.5,2.2,1.3c0.8,1.7,1.6,2.5,2.4,2.6c0.5,0,1.6-1.1,3.2-3.3c1-1.8,2-3.6,3.1-5.5c-2.5-10.4-5.1-20.8-7.9-31.2
		c-1.1-3.8,0.2-6.1,3.9-6.9c3.5-0.7,5.8,0.8,6.8,4.6c1.7,6.7,3.4,13.5,4.9,20.2C205.2,87.4,209,81.3,212.8,75.1z"/>
</g>
<linearGradient id="SVGID_11_" gradientUnits="userSpaceOnUse" x1="11.7663" y1="149.9008" x2="225.6787" y2="149.9008">
	<stop  offset="0" style="stop-color:#FFFFFF"/>
	<stop  offset="1" style="stop-color:#FFC00F"/>
</linearGradient>
<path class="st8" d="M225.7,154.8c-25.9-17-68.5-28.1-116.8-28.1c-37.5,0-71.6,6.7-97.1,17.6c17.7-3.6,37.2-5.6,57.7-5.6
	c54.1,0,101.2,13.9,125.4,34.5c4.8-3.4-2.1-17.7-2.1-17.7S220.3,157.5,225.7,154.8z"/>
</svg>
